#!OML:ASF E:\Steps\Project 1\Capture day 1\Session 2\Subject.ASF
:FULLY-SPECIFIED
:DEGREES
291
root 8.38164 16.1898 18.018 -157.19 1.32893 179.76
lowerback -24.7332 -2.18817 -5.30677
upperback 0.936976 -1.23861 0.641702
thorax 15.2086 -0.939362 3.3592
lowerneck -1.01207 -2.67155 -1.50447
upperneck 18.6978 -2.97095 4.25102
head 5.89401 -0.750782 1.48673
rclavicle 9.44227e-016 -1.07344e-014
rhumerus -34.2454 -18.1797 -77.9954
rradius 33.19
rwrist -2.07988
rhand -11.6969 -50.0473
rfingers 7.12502
rthumb 14.3491 -79.5314
lclavicle 9.44227e-016 -1.07344e-014
lhumerus -33.9173 8.04134 77.584
lradius 24.3655
lwrist -3.8895
lhand -18.4456 -12.8831
lfingers 7.12502
lthumb 7.84026 16.9515
rfemur -25.6342 3.88463 23.3889
rtibia 10.6539
rfoot -16.9755 -3.59284
rtoes -29.2838
lfemur -46.6137 -2.40722 -20.7318
ltibia 68.6748
lfoot -3.0476 3.23248
ltoes -29.2155
292
root 8.39821 16.194 17.9365 -157.16 1.321 179.802
lowerback -24.6296 -2.06141 -5.30837
upperback 0.931037 -1.06312 0.552996
thorax 15.1213 -0.853981 3.3231
lowerneck -0.879382 -2.71311 -1.43805
upperneck 18.8532 -2.99723 4.22939
head 5.91982 -0.74597 1.47065
rclavicle 2.33572e-015 5.76476e-015
rhumerus -33.9876 -18.5942 -78.0098
rradius 33.6031
rwrist -1.11093
rhand -10.1958 -51.0813
rfingers 7.12502
rthumb 15.7951 -80.4569
lclavicle 2.33572e-015 5.76476e-015
lhumerus -33.8906 7.75165 77.6298
lradius 24.5029
lwrist -3.4212
lhand -18.4514 -12.7014
lfingers 7.12502
lthumb 7.83471 17.1334
rfemur -25.2535 3.93588 23.5169
rtibia 10.528
rfoot -17.2387 -3.68254
rtoes -29.7447
lfemur -47.5469 -2.67333 -20.3853
ltibia 67.6036
lfoot -3.24819 3.37612
ltoes -28.3246
293
root 8.41271 16.1969 17.8505 -157.175 1.25568 179.748
lowerback -24.0512 -2.00832 -5.43361
upperback 0.714795 -0.986531 0.545541
thorax 14.5255 -0.805094 3.41865
lowerneck -0.731289 -2.70745 -1.69331
upperneck 19.0922 -2.96072 4.41635
head 5.97512 -0.711981 1.57936
rclavicle 1.31198e-014 5.76476e-015
rhumerus -34.0221 -18.5628 -77.893
rradius 33.9962
rwrist -0.852648
rhand -9.93362 -51.2361
rfingers 7.12502
rthumb 16.0476 -80.5916
lclavicle 1.31198e-014 5.76476e-015
lhumerus -34.2948 7.47665 77.7866
lradius 24.7635
lwrist -3.10228
lhand -18.2402 -12.3373
lfingers 7.12502
lthumb 8.03847 17.4898
rfemur -24.8162 4.1134 23.4895
rtibia 10.44
rfoot -17.5716 -3.91357
rtoes -29.2349
lfemur -48.3445 -3.15419 -20.0497
ltibia 66.3345
lfoot -3.402 3.61704
ltoes -21.7277
294
root 8.42698 16.2029 17.7683 -157.23 1.18099 179.695
lowerback -24.6409 -1.92253 -5.38916
upperback 1.25347 -0.847279 0.396402
thorax 15.4938 -0.782208 3.26415
lowerneck -0.903853 -2.6697 -1.82724
upperneck 18.6732 -3.00386 4.7369
head 5.87992 -0.749657 1.6945
rclavicle 6.85807e-015 1.63003e-014
rhumerus -32.7638 -18.7525 -78.4329
rradius 34.2271
rwrist -0.81277
rhand -10.2708 -50.6666
rfingers 7.12502
rthumb 15.7228 -80.0479
lclavicle 6.85807e-015 1.63003e-014
lhumerus -33.3622 7.52479 77.8412
lradius 24.7737
lwrist -2.97124
lhand -18.0105 -12.0751
lfingers 7.12502
lthumb 8.26019 17.7434
rfemur -24.3696 4.16888 23.5148
rtibia 10.403
rfoot -17.9006 -4.13758
rtoes -29.0872
lfemur -49.0201 -3.61445 -19.7328
ltibia 64.9242
lfoot -4.02215 3.87509
ltoes -19.6194
295
root 8.43989 16.2076 17.683 -157.368 1.13372 179.63
lowerback -23.3079 -1.95761 -5.95687
upperback 0.661692 -0.854853 0.706517
thorax 14.0382 -0.782564 3.95323
lowerneck -0.658192 -2.8523 -2.18822
upperneck 19.3139 -3.10826 4.47441
head 6.0468 -0.799056 1.67617
rclavicle -2.48481e-016 -5.96354e-016
rhumerus -33.4985 -17.7774 -77.8712
rradius 34.7953
rwrist -1.40436
rhand -10.3826 -50.2844
rfingers 7.12502
rthumb 15.6152 -79.6741
lclavicle -2.48481e-016 -5.96354e-016
lhumerus -34.4268 7.65834 78.2344
lradius 24.9675
lwrist -3.03654
lhand -17.9441 -12.305
lfingers 7.12502
lthumb 8.32431 17.511
rfemur -23.7169 3.98277 23.5797
rtibia 10.1378
rfoot -18.1073 -4.14984
rtoes -29.9553
lfemur -49.4887 -4.04356 -19.4789
ltibia 63.2639
lfoot -5.08495 4.11707
ltoes -27.5151
296
root 8.45361 16.2097 17.5952 -157.489 1.07193 179.458
lowerback -24.3038 -1.75539 -5.5743
upperback 1.44705 -0.557138 0.111498
thorax 15.5028 -0.661856 3.14508
lowerneck -1.4613 -2.64561 -1.14367
upperneck 19.0068 -2.96269 4.38061
head 6.06504 -0.691562 1.4672
rclavicle -3.97569e-016 9.54166e-015
rhumerus -31.9597 -18.4126 -79.1237
rradius 34.9773
rwrist -1.63853
rhand -10.6293 -50.2906
rfingers 7.12502
rthumb 15.3775 -79.6987
lclavicle -3.97569e-016 9.54166e-015
lhumerus -33.1351 6.87976 77.8801
lradius 25.0305
lwrist -2.7393
lhand -18.0406 -12.6598
lfingers 7.12502
lthumb 8.23112 17.1599
rfemur -23.0289 3.80323 23.5149
rtibia 9.79993
rfoot -18.3005 -4.25783
rtoes -30.9883
lfemur -49.8463 -4.56689 -19.2545
ltibia 61.1958
lfoot -5.66688 4.46317
ltoes -27.1194
297
root 8.46395 16.205 17.5012 -157.402 1.20402 179.331
lowerback -23.9726 -1.67876 -5.91648
upperback 1.23582 -0.37957 0.152541
thorax 15.0435 -0.590838 3.45681
lowerneck -2.06185 -2.57866 -0.717138
upperneck 19.7397 -2.76785 3.7156
head 6.38196 -0.57894 1.19692
rclavicle 7.95139e-016 -7.95139e-016
rhumerus -32.0184 -17.7205 -79.1037
rradius 35.5716
rwrist -2.51302
rhand -10.463 -50.6548
rfingers 7.12502
rthumb 15.5378 -80.0505
lclavicle 7.95139e-016 -7.95139e-016
lhumerus -33.5839 6.48845 78.1985
lradius 25.3443
lwrist -2.74553
lhand -18.0978 -12.787
lfingers 7.12502
lthumb 8.17598 17.0348
rfemur -22.7231 3.9798 23.3675
rtibia 9.77442
rfoot -18.725 -4.42878
rtoes -30.8498
lfemur -50.2774 -4.9788 -18.9655
ltibia 58.8369
lfoot -5.68824 5.09064
ltoes -29.2257
298
root 8.47816 16.2006 17.4095 -157.29 1.38945 179.237
lowerback -23.8071 -1.55979 -6.11499
upperback 1.14096 -0.165665 0.102319
thorax 14.8127 -0.496107 3.59045
lowerneck -1.65724 -2.69613 -1.36459
upperneck 19.5897 -2.93613 4.18148
head 6.28411 -0.673148 1.44702
rclavicle 5.36719e-015 9.74045e-015
rhumerus -31.9434 -17.1346 -79.2891
rradius 36.2052
rwrist -3.36979
rhand -9.98372 -50.7546
rfingers 7.12502
rthumb 15.9993 -80.1139
lclavicle 5.36719e-015 9.74045e-015
lhumerus -33.6797 6.3021 78.3635
lradius 25.4909
lwrist -2.91367
lhand -18.1262 -12.9566
lfingers 7.12502
lthumb 8.14858 16.8662
rfemur -22.5192 4.47586 23.2051
rtibia 9.91299
rfoot -19.1957 -4.77925
rtoes -30.1843
lfemur -50.7051 -5.27345 -18.6446
ltibia 56.4308
lfoot -5.64152 5.75227
ltoes -32.0525
299
root 8.49321 16.1968 17.3185 -157.238 1.47003 179.108
lowerback -23.8257 -1.49432 -6.29303
upperback 1.19174 -0.0139866 0.0240374
thorax 14.8692 -0.441416 3.65668
lowerneck -1.6166 -2.84942 -1.71953
upperneck 19.3368 -3.19551 4.48289
head 6.21477 -0.818271 1.58477
rclavicle -5.86415e-015 2.18663e-015
rhumerus -31.7083 -16.6487 -79.5966
rradius 36.8206
rwrist -4.07148
rhand -9.97915 -50.3932
rfingers 7.12502
rthumb 16.0037 -79.7522
lclavicle -5.86415e-015 2.18663e-015
lhumerus -33.529 6.23627 78.4492
lradius 25.5262
lwrist -3.20135
lhand -18.1581 -13.2175
lfingers 7.12502
lthumb 8.1177 16.6066
rfemur -22.1692 4.87457 23.0453
rtibia 9.9418
rfoot -19.55 -5.25898
rtoes -30.2545
lfemur -51.0276 -5.62666 -18.3192
ltibia 53.9349
lfoot -5.60001 6.32922
ltoes -26.2929
300
root 8.50439 16.1943 17.2201 -157.38 1.43625 178.967
lowerback -23.4278 -1.42513 -6.4233
upperback 1.12497 0.101842 -0.0918405
thorax 14.5474 -0.379383 3.6362
lowerneck -0.9172 -2.97169 -2.07224
upperneck 19.178 -3.31501 4.57496
head 6.05524 -0.89239 1.67296
rclavicle 5.26779e-015 -6.36111e-015
rhumerus -31.8164 -16.0376 -79.9059
rradius 37.5868
rwrist -4.7707
rhand -10.0945 -50.3476
rfingers 7.12502
rthumb 15.8927 -79.7154
lclavicle 5.26779e-015 -6.36111e-015
lhumerus -33.8237 5.62193 78.5496
lradius 25.8779
lwrist -3.05844
lhand -18.0952 -13.3145
lfingers 7.12502
lthumb 8.17843 16.5073
rfemur -21.4351 4.92484 22.9607
rtibia 9.71866
rfoot -19.8987 -5.48718
rtoes -30.3368
lfemur -50.897 -6.06893 -17.9951
ltibia 51.0501
lfoot -5.55298 6.85639
ltoes -28.1443
301
root 8.51483 16.1896 17.1198 -157.458 1.52133 178.899
lowerback -23.7586 -1.26907 -6.40681
upperback 1.45279 0.357784 -0.289715
thorax 15.1044 -0.285156 3.49022
lowerneck -1.28662 -2.87776 -1.77664
upperneck 19.0131 -3.2345 4.50062
head 6.05756 -0.853695 1.59811
rclavicle 1.78906e-015 -1.07344e-014
rhumerus -31.0989 -15.645 -80.4681
rradius 38.1985
rwrist -5.32304
rhand -10.002 -50.8902
rfingers 7.12502
rthumb 15.9817 -80.2509
lclavicle 1.78906e-015 -1.07344e-014
lhumerus -33.3718 4.89775 78.6936
lradius 26.1701
lwrist -2.81977
lhand -18.2109 -13.2902
lfingers 7.12502
lthumb 8.06682 16.5358
rfemur -20.8491 4.79775 22.9764
rtibia 9.60587
rfoot -20.2357 -5.30309
rtoes -29.5659
lfemur -50.7236 -6.37481 -17.6047
ltibia 47.9536
lfoot -5.54698 7.27602
ltoes -28.7973
302
root 8.52639 16.184 17.0251 -157.384 1.66664 178.856
lowerback -23.5183 -1.18942 -6.49456
upperback 1.31146 0.482194 -0.353649
thorax 14.782 -0.2145 3.50952
lowerneck -1.26852 -2.77445 -1.6099
upperneck 19.0219 -3.0592 4.25395
head 6.04524 -0.772943 1.50216
rclavicle 1.98785e-015 -1.94809e-014
rhumerus -31.0667 -14.8685 -80.7018
rradius 38.7856
rwrist -5.94092
rhand -9.87601 -50.9218
rfingers 7.12502
rthumb 16.103 -80.2728
lclavicle 1.98785e-015 -1.94809e-014
lhumerus -33.6356 4.65337 78.7713
lradius 26.3903
lwrist -2.95496
lhand -18.2665 -13.1819
lfingers 7.12502
lthumb 8.01317 16.6462
rfemur -20.5803 4.65114 23.0049
rtibia 9.64312
rfoot -20.5196 -5.01334
rtoes -28.7629
lfemur -50.7218 -6.6781 -17.1341
ltibia 44.9324
lfoot -5.64922 7.6692
ltoes -27.742
303
root 8.53767 16.1791 16.9273 -157.322 1.73798 178.769
lowerback -23.4012 -1.193 -6.64651
upperback 1.22354 0.514389 -0.360482
thorax 14.6056 -0.200722 3.59939
lowerneck -1.76468 -2.60819 -1.39379
upperneck 19.5053 -2.75724 3.77841
head 6.26594 -0.62553 1.33192
rclavicle -4.37326e-015 6.75868e-015
rhumerus -31.0732 -14.015 -80.8747
rradius 39.3555
rwrist -6.54278
rhand -9.94047 -50.2416
rfingers 7.12502
rthumb 16.041 -79.5976
lclavicle -4.37326e-015 6.75868e-015
lhumerus -33.8846 4.70194 78.8413
lradius 26.5261
lwrist -3.19051
lhand -18.2468 -13.2069
lfingers 7.12502
lthumb 8.03213 16.6205
rfemur -20.2014 4.55264 22.9906
rtibia 9.51478
rfoot -20.8203 -4.87909
rtoes -28.6315
lfemur -50.5956 -7.0472 -16.7088
ltibia 41.8381
lfoot -5.70756 8.06055
ltoes -28.0505
304
root 8.54909 16.1716 16.8235 -157.292 1.78505 178.652
lowerback -23.4071 -1.1408 -6.79552
upperback 1.19985 0.645032 -0.454534
thorax 14.5671 -0.143997 3.62276
lowerneck -1.49428 -2.66156 -1.77428
upperneck 19.427 -2.82939 4.03197
head 6.20524 -0.667868 1.47444
rclavicle 7.45443e-015 -2.18663e-014
rhumerus -31.0967 -13.5264 -81.0525
rradius 39.9496
rwrist -6.84593
rhand -10.0502 -49.6084
rfingers 7.12502
rthumb 15.9353 -78.9729
lclavicle 7.45443e-015 -2.18663e-014
lhumerus -34.0058 4.52546 78.8781
lradius 26.631
lwrist -3.22726
lhand -18.3309 -13.5144
lfingers 7.12502
lthumb 7.95096 16.316
rfemur -19.7242 4.50598 22.9474
rtibia 9.35526
rfoot -21.1796 -4.92338
rtoes -29.1247
lfemur -50.3254 -7.42316 -16.3003
ltibia 38.5065
lfoot -5.42991 8.27174
ltoes -31.7502
